<svg width="51" height="50" viewBox="0 0 51 50" fill="none" xmlns="http://www.w3.org/2000/svg">
<style>@media (prefers-color-scheme: light) { :root { filter: none; } }
@media (prefers-color-scheme: dark) { :root { filter: invert(100%); } }
</style>
<path d="M32.1114 50C30.8511 50 29.6455 49.178 29.2619 47.8629C28.7688 46.2738 29.6455 44.575 31.2347 44.0819C34.3581 43.0955 37.2624 41.342 39.5091 38.9309C42.0298 36.3006 43.7285 33.0127 44.4409 29.4509C45.1533 25.889 44.8793 22.2176 43.6189 18.7653C42.3586 15.3679 40.1667 12.354 37.3172 10.1621C34.4677 7.91541 31.0155 6.54546 27.3988 6.16188C23.7822 5.77829 20.1655 6.43586 16.8777 8.02499C13.5898 9.61412 10.8499 12.08 8.93201 15.2035C7.01409 18.2722 5.97294 21.834 5.97294 25.5055C5.97294 33.3415 10.6855 40.52 17.6996 43.3695L19.234 43.9175C19.3436 43.9723 19.508 44.0271 19.6175 44.0271C21.2067 44.5202 22.0834 46.219 21.5903 47.8081C21.0971 49.3972 19.3984 50.274 17.8092 49.7808C17.6448 49.726 17.4805 49.6712 17.3161 49.6164L16.7133 49.3972C16.6585 49.3972 16.6585 49.3972 16.6037 49.3424L15.5625 48.904H15.5077C6.24692 45.123 0 35.6978 0 25.4507C0 20.6833 1.31514 16.0255 3.83583 11.9704C6.35653 7.9154 9.97317 4.68234 14.2474 2.60003C18.5216 0.517717 23.289 -0.359046 28.0564 0.134133C32.8238 0.627312 37.3172 2.43563 41.0434 5.33991C44.8245 8.24419 47.674 12.1896 49.3179 16.6282C50.9618 21.1216 51.3454 25.9438 50.359 30.6016C49.3727 35.2594 47.126 39.5885 43.8381 43.0407C40.879 46.1642 37.098 48.5205 32.9882 49.7808C32.7142 49.9452 32.4402 50 32.1114 50Z" fill="url(#paint0_linear_1601_1260)"/>
<defs>
<linearGradient id="paint0_linear_1601_1260" x1="25.4484" y1="0" x2="25.4484" y2="50" gradientUnits="userSpaceOnUse">
<stop/>
<stop offset="1" stop-color="#363740"/>
</linearGradient>
</defs>
</svg>
